<?xml version="1.0" encoding="utf-8"?>
<!-- Generator: Adobe Illustrator 19.2.1, SVG Export Plug-In . SVG Version: 6.00 Build 0)  -->
<svg version="1.1" id="Layer_1" xmlns="http://www.w3.org/2000/svg" xmlns:xlink="http://www.w3.org/1999/xlink" x="0px" y="0px"
	 viewBox="0 0 148.4 190.8" style="enable-background:new 0 0 148.4 190.8;" xml:space="preserve">
<style type="text/css">
	.st0{fill:#2691D0;}
	.st1{fill:#FFFFFF;}
</style>
<g id="Layer_x0020_1">
	<g id="_148220104">
		<polygon id="_24510480" class="st0" points="145,187.4 3.5,187.4 3.5,155.7 145,155.7 		"/>
		<g>
			<polygon id="_24509704" class="st1" points="148.4,155.7 0,155.7 0,0 148.4,0 			"/>
			<g>
				<g>
					<path id="_24509072" class="st0" d="M74.2,55.5c29.1,0,54.9,14.3,70.7,36.3V3.5H3.5v88.3C19.3,69.8,45.1,55.5,74.2,55.5
						L74.2,55.5z"/>
					<path id="_24503008" class="st0" d="M74.2,59C44.8,59,18.8,74.1,3.5,96.9v55.4H145V96.9C129.7,74.1,103.7,59,74.2,59L74.2,59z"
						/>
					<path id="_24502744" class="st1" d="M74.2,59c29.5,0,55.5,15.1,70.7,37.9v-5.1c-15.9-22-41.7-36.3-70.7-36.3
						c-29.1,0-54.9,14.3-70.7,36.3v5.1C18.8,74.1,44.8,59,74.2,59L74.2,59z"/>
				</g>
				<g>
					<path id="_24502000" class="st1" d="M17.4,117.1c-0.3,0.6-0.5,1.1-0.7,1.7c-5.7,1.7-9.5,0.2-9.7,0.1c-0.6-0.2-1.2,0-1.5,0.6
						c-0.2,0.6,0,1.2,0.6,1.5c0.3,0.1,4.2,1.7,10.1,0.3c0,0.1,0,0.2,0,0.2c0,1.7,0.7,2.8,1.6,3.4c2.6,1.7,8.2,0.2,16.3-8.1
						c-0.5,1.5-1,3.2-1.3,4.9c0,0.1,0,0.2,0,0.2c0,0.5,0.3,0.9,0.7,1.1c0.9,0.4,1.4-0.4,1.8-1l1.1-1.7c1-1.5,3.2-4.8,4.7-6.5
						c-0.2,1-0.4,2-0.4,3c0,1.4,0.3,2.6,1.4,3.3c0.9,0.5,2.4,0.7,5.7-1.2c0.3,0.8,0.8,1.1,1.1,1.3c2.1,1,6-1.1,10-5
						c-0.5,1.2-1,2.3-1.1,2.7c0,0.1,0,0.2,0,0.3c0,0.5,0.3,0.9,0.7,1.1c0.9,0.4,1.5-0.4,1.9-1l1.2-1.8c1-1.5,3.4-5,4.8-6.5
						c0.4,1,1.2,2.3,2.5,3c-0.4,0.9-0.6,1.6-0.6,2.3c0,0.8,0.3,1.4,0.9,1.8c1,0.7,2.6,0.3,4.3-0.6c-5.3,5.3-7.7,10.5-7.8,12.8
						c0,0,0,0.1,0,0.1c0,1.3,0.6,1.8,1,2c0.8,0.4,1.8,0.2,2.9-0.7c4-3.2,6.9-10.7,8.4-15.3c2-1.6,4.3-3.2,7-4.6
						c-0.9,1.5-1.4,3-1.4,4.1c0,0.4,0.1,0.8,0.2,1.1c0.3,0.8,1,1.3,1.8,1.4c1.8,0.2,4.4-1.7,7.4-5.4c-0.3,0.7-0.5,1.5-0.8,2.2
						c-8.3,6.6-12.1,13.6-12.6,17.4c0,0.3-0.1,0.6-0.1,0.9c0,1.5,0.6,2.2,1.2,2.5c0.6,0.4,1.7,0.5,3.3-0.7c1.8-1.3,6-7.9,10-18.8
						c5.4-4.1,12.8-8.1,22.7-10.8c0.5-0.1,0.8-0.6,0.8-1.1c0-0.1,0-0.2,0-0.3c-0.2-0.6-0.8-0.9-1.4-0.8c-8.6,2.4-15.4,5.7-20.7,9.3
						c0.6-1.9,1.3-3.9,1.9-6c0-0.1,0-0.2,0-0.3c0-0.4-0.2-0.8-0.7-1c-0.5-0.2-1.1,0-1.4,0.4c-5.6,8.7-8.7,10.3-9.4,10.3
						c0-0.1-0.1-0.2-0.1-0.3c0-1,0.9-3.5,3.6-6.4c0.2-0.2,0.3-0.5,0.3-0.8c0-0.2-0.1-0.4-0.2-0.6c-0.3-0.4-0.9-0.6-1.4-0.4
						c-3.5,1.5-6.5,3.2-9.2,5.1c0-0.1,0.1-0.2,0.1-0.2c0-0.1,0-0.2,0-0.3c0-0.4-0.2-0.8-0.6-1c0,0,0,0-0.1,0c0.8-0.6,1.6-1.3,2.4-2
						c0.9-0.8,1.1-1.6,1.1-2.1c0-0.2,0-0.4-0.1-0.6c-0.3-0.8-1-1.3-2-1.4c-2.5-0.3-6.4,1.8-9.9,6.9c-1.2-0.6-1.7-2.2-1.9-2.9
						l-0.1-0.3c-0.1-0.5-0.6-0.8-1.1-0.8c-0.8,0-1.6,0.5-2.8,2c0,0,0-0.1,0.1-0.1c0.1-0.2,0.1-0.3,0.1-0.5c0-0.4-0.2-0.7-0.5-1
						c-0.5-0.3-1.1-0.2-1.5,0.3c-6.2,8.4-11.7,10.7-12.5,10.3c0,0,0-0.1,0-0.2c0-0.1,0-0.2,0-0.4c1.4-1,3-2.3,5-4
						c1.8-1.6,2.2-2.8,2.2-3.7c0-0.4-0.1-0.7-0.2-0.9c-0.4-0.9-1.3-1.3-2.3-1.2c-2.3,0.2-5.2,2.9-6.6,8.4c-3.6,2.5-4.6,2.1-4.7,2
						c-0.5-0.3-0.5-1.8,0.1-4.6c0.2-1.2,0.4-1.8,0.1-2.3c-0.3-0.5-0.7-0.8-1.3-0.8c-1.2-0.1-2.5,1.2-5.3,5.1
						c1.1-2.6,2.2-4.4,2.2-4.4c0.1-0.2,0.2-0.4,0.2-0.6c0-0.3-0.2-0.7-0.5-0.9c-0.5-0.3-1.1-0.2-1.5,0.2
						c-9.8,12-16.5,14.5-18.4,13.2c-0.4-0.3-0.6-0.8-0.6-1.5c0-0.3,0-0.6,0.1-1c3.7-1.3,7.9-3.8,12.4-8.4c2.7-2.7,4.1-5.3,4.1-7.2
						c0-0.4-0.1-0.8-0.2-1.2c-0.4-1-1.3-1.6-2.5-1.7C28.8,101.9,22.8,106.5,17.4,117.1L17.4,117.1z M32.2,104.3
						c0.4,0,0.5,0.2,0.5,0.3c0,0.1,0.1,0.2,0.1,0.4c0,1-0.9,3-3.4,5.6c-3.5,3.6-6.8,5.8-9.7,7.1C24.8,107.7,30.1,104.2,32.2,104.3
						L32.2,104.3z M54.2,110.1c0.4-0.2,0.6-0.2,0.8-0.2c-0.1,0.3-0.3,0.9-1.4,1.9c-0.8,0.7-1.6,1.3-2.2,1.9
						C52.4,111.2,53.7,110.4,54.2,110.1L54.2,110.1z M79,106.3c0.4-0.1,0.7-0.1,0.9-0.1c-0.1,0.1-0.1,0.2-0.2,0.3
						c-2.6,2.4-4.8,3.9-6.6,4.5C75.8,107.3,78.2,106.5,79,106.3L79,106.3z M75.6,112.2c-2.2,1.9-4.1,2.8-4.8,2.8
						c0-0.2,0.1-0.7,0.5-1.6C72.6,113.5,74,113.1,75.6,112.2L75.6,112.2z M74.7,118.4c-1.5,3.9-3.7,8.3-6.3,10.3
						c-0.1,0.1-0.2,0.2-0.3,0.2C68.3,127.4,70.2,123,74.7,118.4L74.7,118.4z M82.1,132.2c0-0.5,0.1-1.3,0.5-2.5
						c1-2.9,3.6-7.1,8.1-11.3c-3.4,8.2-6.6,13-7.8,14c-0.4,0.3-0.7,0.4-0.8,0.5C82.1,132.7,82.1,132.5,82.1,132.2L82.1,132.2z"/>
					<path id="_24501840" class="st1" d="M114,79.4c-0.7,0-1.3,0.4-1.6,1.1c0,0-6.1,15.7-6.8,17.5c-1.9,0.1-18.7,1-18.7,1
						c-0.9,0-1.6,0.8-1.6,1.7c0,0,0,0.1,0,0.1c0,0.9,0.8,1.6,1.8,1.6l19.7-1c0.7,0,1.2-0.5,1.5-1.1c0,0,3.7-9.6,5.7-14.5
						c1.9,4.9,5.6,14.5,5.6,14.5c0.2,0.6,0.8,1,1.5,1.1c0,0,10.2,0.6,15.4,0.9c-4,3.3-11.9,9.9-11.9,9.9c-0.4,0.3-0.6,0.8-0.6,1.3
						c0,0.1,0,0.3,0.1,0.4c0,0,2.5,9.9,3.8,15c-4.4-2.8-12.9-8.3-12.9-8.3c-0.5-0.4-1.3-0.4-1.8,0c0,0-8.6,5.5-13.1,8.4
						c1.4-4.9,3.8-13.8,3.8-13.8c0-0.1,0.1-0.3,0.1-0.4c0-0.7-0.5-1.4-1.2-1.6c-0.9-0.2-1.8,0.3-2.1,1.2l-5,18
						c-0.2,0.7,0.1,1.4,0.6,1.8c0.6,0.4,1.3,0.4,1.9,0.1c0,0,14.3-9.1,15.9-10.1c1.6,1,15.6,10.1,15.6,10.1c0.6,0.4,1.3,0.4,1.9,0
						c0.4-0.3,0.7-0.8,0.7-1.4c0-0.1,0-0.3-0.1-0.4c0,0-4.2-16.2-4.6-18.1c1.5-1.2,14.3-11.9,14.3-11.9c0.4-0.3,0.6-0.8,0.6-1.3
						c0-0.2,0-0.4-0.1-0.5c-0.2-0.7-0.8-1.1-1.5-1.1c0,0-16.6-1-18.6-1.1c-0.7-1.8-6.8-17.4-6.8-17.4
						C115.3,79.8,114.7,79.4,114,79.4L114,79.4z"/>
				</g>
			</g>
		</g>
		<polygon id="_24499960" class="st1" points="145,155.7 145,187.4 3.5,187.4 3.5,155.7 0,155.7 0,187.4 0,190.8 3.5,190.8 
			145,190.8 148.4,190.8 148.4,190.8 148.4,155.7 		"/>
		<g>
			<polygon id="_24499296" class="st1" points="9.6,180.4 9.6,162.7 18.7,162.7 18.7,164.7 11.8,164.7 11.8,170.4 18.2,170.4 
				18.2,172.3 11.8,172.3 11.8,178.4 18.8,178.4 18.8,180.4 			"/>
			<polygon id="_24498632" class="st1" points="33.8,162.7 33.8,180.4 30.7,180.4 23.7,165.1 23.7,165.1 23.7,180.4 21.7,180.4 
				21.7,162.7 24.9,162.7 31.7,177.9 31.8,177.9 31.8,162.7 			"/>
			<polygon id="_148225832" class="st1" points="36.9,180.4 36.9,162.7 46,162.7 46,164.7 39.2,164.7 39.2,170.4 45.6,170.4 
				45.6,172.3 39.2,172.3 39.2,178.4 46.2,178.4 46.2,180.4 			"/>
			<path id="_148224968" class="st1" d="M51.2,164.7h3.4c1.7,0,2.4,1.4,2.4,2.7c0,1.5-0.8,2.9-2.4,2.9h-3.4L51.2,164.7L51.2,164.7z
				 M53.8,172.3c0.8,0,2.5,0.1,2.7,2.3c0.2,2.4,0.1,4.7,0.7,5.9h2.4c-0.3-1.1-0.6-3.9-0.6-4.6c-0.1-3.6-0.9-4.2-2.9-4.6v-0.1
				c2.1-0.4,3.2-2,3.2-4c0-2.2-1.1-4.4-4.2-4.4h-6.1v17.7h2.3v-8.1L53.8,172.3L53.8,172.3z"/>
			<path id="_148224128" class="st1" d="M70.2,167.4c0-2.1-0.9-3.2-3.1-3.2c-0.7,0-3.3,0.1-3.3,3.8v6c0,3.9,1.1,4.9,3.3,4.9
				c1.6,0,2.7-0.4,3.2-0.8v-5.3h-3.3v-2h5.5v8.6c-1.4,0.8-3.1,1.3-5.4,1.3c-3.7,0-5.6-1.9-5.6-6.8v-5.8c0-3.5,1.8-5.8,5.6-5.8
				c3.8,0,5.6,1.4,5.5,5.1L70.2,167.4L70.2,167.4z"/>
			<polygon id="_148223496" class="st1" points="83.2,162.7 85.5,162.7 80.7,173.7 80.7,180.4 78.4,180.4 78.4,173.7 73.7,162.7 
				76.2,162.7 79.7,171.3 			"/>
			<path id="_148223112" class="st1" d="M93.1,175.1v0.5c0,2.4,1.5,3.2,3,3.2c1.8,0,3.2-0.8,3.2-2.9c0-3.9-7.9-3.5-7.9-8.8
				c0-3.1,2.2-4.8,5.2-4.8c3.2,0,5,1.6,4.9,5.2h-2.4c0-1.9-0.6-3.2-2.7-3.2c-1.4,0-2.7,0.7-2.7,2.6c0,3.9,7.9,3.3,7.9,8.9
				c0,3.7-2.6,4.9-5.5,4.9c-5.2,0-5.2-3.9-5.2-5.6H93.1L93.1,175.1z"/>
			<polygon id="_148222488" class="st1" points="114.2,162.7 114.2,164.7 109.5,164.7 109.5,180.4 107.2,180.4 107.2,164.7 
				102.6,164.7 102.6,162.7 			"/>
			<path id="_148222104" class="st1" d="M122.1,174.2h-5.7l2.8-9.4h0L122.1,174.2L122.1,174.2z M112.3,180.4h2.3l1.3-4.2h6.8
				l1.3,4.2h2.5l-5.8-17.7h-2.9L112.3,180.4L112.3,180.4z"/>
			<path id="_148220648" class="st1" d="M130.5,164.7h3.4c1.7,0,2.4,1.4,2.4,2.7c0,1.5-0.8,2.9-2.4,2.9h-3.4L130.5,164.7
				L130.5,164.7z M133.2,172.3c0.8,0,2.5,0.1,2.7,2.3c0.2,2.4,0,4.7,0.7,5.9h2.3c-0.3-1.1-0.6-3.9-0.6-4.6c-0.1-3.6-0.9-4.2-2.9-4.6
				v-0.1c2.1-0.4,3.2-2,3.2-4c0-2.2-1.1-4.4-4.2-4.4h-6.1v17.7h2.3v-8.1L133.2,172.3L133.2,172.3z"/>
		</g>
	</g>
</g>
</svg>
