<svg id="Layer_1" xmlns="http://www.w3.org/2000/svg" viewBox="0 0 12.3 15"><style>.st0{fill:#214b9d}</style><path class="st0" d="M9.3 14.3c.9 0 2-.8 2.3-1.6.2-.7 0-1.2-.3-1.8-1.7-2.6-3.4-5.2-5-7.7-.5-.6.1-.9.5-.5 1.6 2.5 3.3 5 4.9 7.6 1.2 1.9.6 3.6-1.4 4.5-1.3.5-2.5.1-3.3-1.1-1.9-2.9-3.8-5.9-5.7-8.8-.3-.5-.7-1-1-1.5-.4-.6-.4-1.3-.1-1.9C.7.5 1.8-.1 2.8.1c.6.1 1 .3 1.2.7C5.7 3.4 7.4 6 9.1 8.7c.7 1.1.2 2.3-1.2 2.5-.6.1-1.1-.2-1.4-.7-.9-1.5-1.9-3-2.8-4.4-.2-.2-.3-.5-.5-.7-.3-.6.3-.9.7-.4.7 1.2 1.5 2.3 2.2 3.5.3.5.7 1 1 1.6.4.6.8.7 1.4.1.2-.2.2-.5.2-.7 0-.1-.1-.3-.2-.4-1.7-2.6-3.4-5.2-5-7.8C3 .7 2.4.6 1.8.8c-.7.3-1.2 1.1-1 1.7 0 .1.1.3.2.4 2.2 3.4 4.5 6.9 6.7 10.3.3.6.8 1.1 1.6 1.1z"/></svg>