<svg id="Layer_1" xmlns="http://www.w3.org/2000/svg" viewBox="0 0 34.5 36.9"><style>.st0{fill:#33a063}.st1{fill:none;stroke:#33a063;stroke-width:2;stroke-linecap:round;stroke-miterlimit:10}</style><path class="st0" d="M32.5 2v32.9H17.9c-.4 0-.7-.2-.9-.5-1.8-3.1-2.9-6.2-3.3-9.3l-.2-1.9-1.9.1h-.5c-2.8 0-5.5-1.1-8.6-3.7-.4-.2-.5-.5-.5-.8V2h30.5m2-2H0v18.8c0 .9.4 1.8 1.1 2.4 3 2.4 6.1 4.2 9.9 4.2h.6c.4 3.4 1.6 6.8 3.6 10.1.6.9 1.5 1.5 2.6 1.5h16.6V0h.1z"/><path class="st1" d="M11.1 6.4h11.2"/><path class="st0" d="M6.1 20.4v-1.7c3.9-.1 5.3-1.2 5.3-3.2 0-1.9-1.4-2.5-3-2.5-1.2 0-2.6.3-3.7.8L4 12c1.3-.5 2.9-.9 4.4-.9 2.7 0 5.1 1 5.1 4.2 0 1.8-.6 3.1-2.3 4 1.5.5 2.4 1.3 2.8 2.3.1.2-2.5.4-2.5.3-.7-1-2-1.6-3.9-1.6H6.1zM18 20.2c0-7 1.9-9.1 6.1-9.1 4.1 0 5.9 2 5.9 9s-2.2 9.1-6.1 9.1c-3.8 0-5.9-2-5.9-9zm2.4 0c0 5.6.8 7.2 3.7 7.2 2.9 0 3.6-1.6 3.6-7.2s-1-7.2-3.6-7.2c-2.7 0-3.7 1.6-3.7 7.2z"/></svg>