<svg id="Layer_1" xmlns="http://www.w3.org/2000/svg" viewBox="0 0 37.9 32.6"><style>.st0{fill:#33a063}</style><path class="st0" d="M19 4c2.2 0 4 1.8 4 4s-1.8 4-4 4-4-1.8-4-4 1.8-4 4-4m0-2c-3.3 0-6 2.7-6 6s2.7 6 6 6 6-2.7 6-6-2.7-6-6-6zM20.8 18c2.3 0 4.2 1.9 4.2 4.2V30c0 .2-.1.3-.3.3a54.413 54.413 0 0 1-11.4 0c-.2 0-.3-.2-.3-.3v-7.8c0-2.3 1.9-4.2 4.2-4.2h3.6m0-2h-3.7c-3.4 0-6.2 2.8-6.2 6.2V30c0 1.2.9 2.2 2.1 2.3a58.28 58.28 0 0 0 11.8 0c1.2-.1 2.1-1.1 2.1-2.3v-7.8c.1-3.4-2.7-6.2-6.1-6.2zM31.3 2c1.6 0 3 1.3 3 3s-1.3 3-3 3-3-1.3-3-3 1.3-3 3-3m0-2c-2.8 0-5 2.2-5 5s2.2 5 5 5 5-2.2 5-5-2.3-5-5-5zM6.6 2c1.6 0 3 1.3 3 3s-1.3 3-3 3-3-1.3-3-3 1.4-3 3-3m0-2c-2.8 0-5 2.2-5 5s2.2 5 5 5 5-2.2 5-5-2.2-5-5-5z"/><path class="st0" d="M32.8 11.6h-3c-2.8 0-5.1 2.3-5.1 5.1v.6c.9.7 1.6 1.7 2 2.8v-3.4c0-1.7 1.4-3.1 3.1-3.1h3c1.7 0 3.1 1.4 3.1 3.1v6.4c-1.5.2-3.1.3-4.6.3-1.4 0-2.9-.1-4.3-.2v2c1.4.1 2.9.2 4.3.2 1.6 0 3.3-.1 4.9-.3 1-.1 1.8-.9 1.8-1.9v-6.5c-.1-2.8-2.4-5.1-5.2-5.1zM11 23.2c-1.4.1-2.9.2-4.3.2-1.5 0-3.1-.1-4.7-.3v-6.4c0-1.7 1.4-3.1 3.1-3.1h3c1.7 0 3.1 1.4 3.1 3.1v3.5c.4-1.1 1.1-2.1 2-2.9v-.6c0-2.8-2.3-5.1-5.1-5.1h-3c-2.8 0-5.1 2.3-5.1 5.1v6.5c0 1 .8 1.8 1.8 1.9 1.6.2 3.3.3 4.9.3 1.4 0 2.9-.1 4.3-.2v-2z"/></svg>