<svg id="Layer_1" xmlns="http://www.w3.org/2000/svg" viewBox="0 0 37.9 37.9"><style>.st0{fill:#33a063}.st1{stroke-width:2}.st1,.st2{fill:none;stroke:#33a063;stroke-linecap:round;stroke-miterlimit:10}</style><path class="st0" d="M19 2c9.4 0 17 7.6 17 17s-7.6 17-17 17S2 28.4 2 19 9.6 2 19 2m0-2C8.5 0 0 8.5 0 19s8.5 19 19 19 19-8.5 19-19S29.4 0 19 0z"/><path class="st1" d="M19 18.7V5.2M19 19l9.2-2.4"/><path class="st2" d="M19 33.2v-4.9M26.2 31.3L23.8 27M31.6 26l-4.3-2.5M11.7 6.1l2.4 4.3M6.4 11.4l4.2 2.5M4.4 18.7h4.9M6.4 26l4.2-2.5M11.7 31.3l2.4-4.3"/></svg>