<svg id="Layer_1" xmlns="http://www.w3.org/2000/svg" viewBox="0 0 200 58"><style>.st0{fill:#214b9d}.st1{fill:#0d2041}</style><path class="st0" d="M52.1 26.6h1.4v14.1h-1.4zM64.1 30.3h-6.2c-.4 0-.8.2-1.1.5-.3.3-.5.7-.5 1.1v7.2c0 .4.2.8.5 1.1.3.3.7.5 1.1.5h6.2c.4 0 .8-.2 1.1-.5.3-.3.5-.7.5-1.1v-7.2c0-.4-.2-.8-.5-1.1-.3-.4-.7-.5-1.1-.5zm.3 8.4c0 .2-.1.3-.2.5-.1.1-.3.2-.5.2h-5.3c-.2 0-.4-.1-.5-.2-.1-.1-.2-.3-.2-.5v-6.5c0-.2.1-.3.2-.5.1-.1.3-.2.5-.2h5.3c.2 0 .3.1.5.2.1.1.2.3.2.5v6.5zM92.2 30.3H86c-.4 0-.8.2-1.1.5-.3.3-.5.7-.5 1.1v7.2c0 .4.2.8.5 1.1.3.3.7.5 1.1.5h6.2c1.1 0 1.6-.8 1.6-2.4v-.5-.5h-1.3v.9c0 .8-.2 1.2-.7 1.2h-5.3c-.2 0-.3-.1-.5-.2-.1-.1-.2-.3-.2-.5v-6.5c0-.2.1-.3.2-.5.1-.1.3-.2.5-.2h5.3c.5 0 .7.4.7 1.1v.8h1.3v-.8c0-1.6-.5-2.3-1.6-2.3zM103.9 30.3h-6.2c-1.1 0-1.6.8-1.6 2.4v1.1h1.3v-1c0-.8.2-1.2.7-1.2h5.3c.2 0 .3.1.5.2.1.1.2.3.2.5v2.6h-6.4c-.4 0-.8.2-1.1.5-.3.3-.5.7-.5 1.1v2.6c0 .4.2.8.5 1.1.3.3.7.5 1.1.5h7.8v-8.8c0-.4-.2-.8-.5-1.1-.3-.4-.7-.5-1.1-.5zm.2 9.1H98c-.2 0-.4-.1-.5-.2-.1-.1-.2-.3-.2-.5v-1.8c0-.2.1-.3.2-.5.1-.1.3-.2.5-.2h6.1v3.2zM108.3 26.6h1.4v14.1h-1.4z"/><path class="st1" d="M120.3 30.2h-6.2c-.4 0-.8.2-1.1.5-.3.3-.5.7-.5 1.1v2.7c0 .4.2.8.5 1.1.3.3.7.5 1.1.5h5.6c.2 0 .4.1.5.2.2.1.2.3.2.5v2c0 .2-.1.3-.2.5-.1.1-.3.2-.5.2h-5.3c-.5 0-.7-.4-.7-1.1V38v-.4h-1.3v.8c0 1.6.5 2.4 1.6 2.4h6.2c.4 0 .8-.2 1.1-.5.3-.3.5-.7.5-1.1v-2.6c0-.8-.4-1.3-1.1-1.5-.3-.1-.9-.1-2-.1h-4.2c-.2 0-.3-.1-.5-.2-.1-.1-.2-.3-.2-.5v-2.1c0-.2.1-.4.2-.5.1-.1.3-.2.5-.2h5.3c.5 0 .7.4.7 1.1v.8h1.3v-.8c.1-1.6-.4-2.4-1.5-2.4zM132.3 30.3h-6.2c-.4 0-.8.2-1.1.5-.3.3-.5.7-.5 1.1v7.2c0 .4.2.8.5 1.1.3.3.7.5 1.1.5h6.2c.4 0 .8-.2 1.1-.5.3-.3.5-.7.5-1.1v-7.2c0-.4-.2-.8-.5-1.1-.3-.4-.7-.5-1.1-.5zm.3 8.4c0 .2-.1.3-.2.5-.1.1-.3.2-.5.2h-5.3c-.2 0-.4-.1-.5-.2-.1-.1-.2-.3-.2-.5v-6.5c0-.2.1-.3.2-.5.1-.1.3-.2.5-.2h5.3c.2 0 .3.1.5.2.1.1.2.3.2.5v6.5zM136.7 26.6h1.4v14.1h-1.4zM148.8 39.4h-5.9c-.2 0-.3-.1-.5-.2-.1-.1-.2-.3-.2-.5v-8.6h-1.4V39c0 .4.2.8.5 1.2.3.3.7.5 1.2.5h7.7V30.2h-1.4v9.2zM162.1 30.2h1.4v10.5h-1.4zM174.1 30.3h-6.2c-.4 0-.8.2-1.1.5-.3.3-.5.7-.5 1.1v7.2c0 .4.2.8.5 1.1.3.3.7.5 1.1.5h6.2c.4 0 .8-.2 1.1-.5.3-.3.5-.7.5-1.1v-7.2c0-.4-.2-.8-.5-1.1-.3-.4-.7-.5-1.1-.5zm.3 8.4c0 .2-.1.3-.2.5-.1.1-.3.2-.5.2h-5.3c-.2 0-.4-.1-.5-.2-.1-.1-.2-.3-.2-.5v-6.5c0-.2.1-.3.2-.5.1-.1.3-.2.5-.2h5.3c.2 0 .3.1.5.2.1.1.2.3.2.5v6.5zM186.2 30.2h-7.8v10.5h1.4v-9.3h6c.2 0 .4.1.5.2.1.1.2.3.2.5v8.6h1.3v-8.9c0-.4-.2-.8-.5-1.1-.3-.3-.7-.5-1.1-.5zM198.7 33.4h1.3v-.8c0-1.6-.5-2.4-1.6-2.4h-6.2c-.4 0-.8.2-1.1.5-.3.3-.5.7-.5 1.1v2.7c0 .4.2.8.5 1.1.3.3.7.5 1.1.5h5.6c.2 0 .4.1.5.2.2.1.2.3.2.5v2c0 .2-.1.3-.2.5-.1.1-.3.2-.5.2h-5.3c-.5 0-.7-.4-.7-1.1V38v-.4h-1.3v.8c0 1.6.5 2.4 1.6 2.4h6.2c.4 0 .8-.2 1.1-.5.3-.3.5-.7.5-1.1v-2.6c0-.8-.4-1.3-1.1-1.5-.3-.1-.9-.1-2-.1h-4.2c-.2 0-.3-.1-.5-.2-.1-.1-.2-.3-.2-.5v-2.1c0-.2.1-.4.2-.5.1-.1.3-.2.5-.2h5.3c.5 0 .7.4.7 1.1v.4c.1.2.1.3.1.4zM159.9 30.2h-6.1v-2.6l-1.4 1.1v10.4c0 .4.2.8.5 1.1.3.3.7.5 1.1.5h5.8v-1.2h-5.3c-.2 0-.4-.1-.5-.2-.1-.1-.2-.3-.2-.5v-7.2h6.1c.9-.1.9-1.4 0-1.4z"/><path class="st0" d="M68.8 30.7c-.3.3-.5.7-.5 1.2v7.2c0 .4.1.8.5 1.1.3.3.7.5 1.1.5h6.4V43c0 .2-.1.4-.3.5-.2.2-.4.3-.6.3h-7.2c-.3 0-.6.3-.6.6 0 .6.7.6.7.6H76c.4 0 .8-.1 1.2-.5.3-.3.5-.7.5-1.1V30.2H70c-.5 0-.8.2-1.2.5zm7.6.9v7.9h-6c-.2 0-.4 0-.5-.2-.1-.1-.2-.3-.2-.5v-6.5c0-.2.1-.4.2-.5.1-.1.3-.2.5-.2h6z"/><path class="st1" d="M42.8 17.6h-.1L32.3 12c-.1-.1-.2-.1-.3 0l-6.3 3.7c-.2-.2-.6-.2-.9-.1-.4.2-.6.7-.4 1.1.2.4.7.6 1.1.4.3-.2.5-.5.5-.8l6.1-3.6 9.7 5.3-9.7 6v-.7c0-.2-.1-.3-.3-.4L23.2 18c-.7-.3-1.8.2-2.1.5L11 23.7V23c0-.2-.1-.5-.3-.6l-9.1-5.1v-2.2l9.1 5.1c.1.1.2.1.3 0l11-6c.1-.1.2-.2.2-.3v-3.6c0-.1 0-.2-.2-.3-.1-.1-.2-.1-.3 0L11 16v-.9c0-.2-.1-.3-.2-.4L1.6 9.6V5.9L11.1.7l10 5.9-10 5.4-6.3-3.8V8c0-.5-.4-.8-.8-.8s-.9.3-.9.8.4.8.8.8c.1 0 .2 0 .4-.1l6.6 4c.1.1.2.1.3 0L22 7c.1-.1.2-.2.2-.3 0-.1-.1-.2-.2-.3L11.3 0h-.4L.2 5.9c-.1.1-.2.2-.2.3v4.1c0 .1.1.2.2.3l10.6 6.2c.1.1.2.1.3 0l10.3-5.9v2.8l-10.6 5.9v-.7c0-.2-.1-.3-.2-.4l-10-5.6c-.2-.2-.6 0-.6.4V18c0 .1.1.2.2.3l7.5 4.2 3.1 1.8h.4l10.6-5.6L32 24.5c.1.1.3.1.4 0l9.9-6.1V22l-10 5.9v-.7c0-.2-.1-.3-.3-.4l-8.7-5.1c-.4-.2-1.1 0-1.5.2h-.2c-.2.1-.4.2-.5.3l-10 5.5v-.8c0-.2-.1-.3-.2-.4L.7 20.8c-.3-.2-.7 0-.7.4v4.7c0 .1 0 .2.1.2 0 .1.1.2.2.2l10.8 6c.1.1.2.1.3 0l10.5-5.7h.1l10.3 5.7c.1.1.2.1.4 0l9.8-5.9v3.3l-9.9 5.8v-.8c0-.2-.1-.3-.3-.4l-8.8-4.8c-.5-.2-1.1 0-1.6.2h-.1l-.1.1c-.1.1-.3.1-.3.2l-8.9 5L.7 28.7c-.3-.2-.7.1-.7.4V34c0 .1.1.2.2.3h.1l21 11.7h.1l.3.2c.1.1.2.1.4 0l20.3-11.9v3.2L22 49.5V48.7c0-.2-.1-.3-.2-.4L.7 36.4c-.3-.2-.7 0-.7.4v5.4c0 .1.1.1.1.2l.1.1 4.4 2.4 17 9.5c.1.1.2.1.4 0l20.2-11.8v3.2L21.9 57.3v-.7c0-.2-.1-.3-.2-.4L.7 44.5c-.3-.2-.7 0-.7.4V45.7c0 .1.1.3.2.3l13.1 7.3 7.8 4.4h.1l.4.2h.4l20.8-11.7c.1-.1.2-.2.2-.3v-4c0-.1-.1-.2-.2-.3-.1-.1-.2-.1-.4 0l-20.6 12v-.8c0-.2-.1-.3-.2-.4l-20-11v-2.6L14.2 46l7.5 4.3c.1.1.2.1.3 0l20.8-12.2c.1-.1.2-.2.2-.3v-4c0-.1-.1-.2-.2-.3-.1-.1-.3-.1-.4 0l-20.6 12v-.7c0-.2-.1-.3-.2-.4l-20-11.2v-2.3L5.5 33l5.7 3.1.1.1 9.8 5.4h.1c.1.1.1.1.2.1s.1 0 .2-.1l4.6-2.9c.2.2.6.2.8 0 .4-.2.6-.7.4-1.1-.2-.4-.7-.6-1.1-.4-.3.2-.5.5-.5.9L21.5 41v-.5c0-.2-.1-.3-.2-.4L13 35.5l8.8-5 10.4 5.8h.4l10.3-6c.1-.1.2-.2.2-.3v-4.1c0-.1-.1-.2-.2-.3-.1-.1-.2-.1-.4 0l-10.2 6.1v-.8c0-.2-.1-.3-.3-.4l-8.7-4.8c-.7-.4-1.9.3-2.1.5l-9.9 5.4v-.7c0-.2-.1-.3-.2-.4l-9.5-5.3V23l4.8 2.6 4.7 2.6c.1.1.2.1.3 0l10.5-5.8.2.1s.8.5 2 1.2l8.2 4.8c.1.1.2.1.4 0L43 22.4c.1-.1.2-.2.2-.3v-4.3c-.2 0-.3-.1-.4-.2z"/><path class="st0" d="M80.5 30.2h1.4v10.5h-1.4z"/><circle class="st0" cx="81.2" cy="27.3" r=".8"/><circle class="st1" cx="162.9" cy="27.3" r=".8"/></svg>